<svg width="38" height="38" viewBox="0 0 38 38" fill="none" xmlns="http://www.w3.org/2000/svg">
<path fill-rule="evenodd" clip-rule="evenodd" d="M19.0001 1.97949C9.59974 1.97949 1.97925 9.59998 1.97925 19.0003C1.97925 28.4007 9.59974 36.0212 19.0001 36.0212C28.4005 36.0212 36.0209 28.4007 36.0209 19.0003C36.0209 9.59998 28.4005 1.97949 19.0001 1.97949ZM11.9233 18.9523C11.4595 18.4886 10.7077 18.4886 10.2439 18.9523C9.78016 19.4161 9.78016 20.1679 10.2439 20.6316L14.9939 25.3816C15.4577 25.8454 16.2096 25.8454 16.6732 25.3816L27.7565 14.2983C28.2203 13.8346 28.2203 13.0827 27.7565 12.619C27.2928 12.1552 26.541 12.1552 26.0773 12.619L15.8336 22.8625L11.9233 18.9523Z" fill="#76865F"/>
</svg>
