<svg width="28" height="28" viewBox="0 0 28 28" fill="none" xmlns="http://www.w3.org/2000/svg">
<path d="M22.1667 23.3337H5.83333C4.54467 23.3337 3.5 22.289 3.5 21.0003V10.5003C3.5 9.21166 4.54467 8.16699 5.83333 8.16699H22.1667C23.4554 8.16699 24.5 9.21166 24.5 10.5003V21.0003C24.5 22.289 23.4554 23.3337 22.1667 23.3337Z" stroke="black" stroke-width="1.51667"/>
<path d="M19.2501 16.3337C18.928 16.3337 18.6667 16.0724 18.6667 15.7503C18.6667 15.4282 18.928 15.167 19.2501 15.167C19.5722 15.167 19.8334 15.4282 19.8334 15.7503C19.8334 16.0724 19.5722 16.3337 19.2501 16.3337Z" fill="black" stroke="black" stroke-width="1.51667" stroke-linecap="round" stroke-linejoin="round"/>
<path d="M21 8.16633V6.53675C21 5.00368 19.5468 3.8872 18.0655 4.28221L5.23212 7.70444C4.2107 7.97682 3.5 8.90187 3.5 9.95898V10.4997" stroke="black" stroke-width="1.51667"/>
</svg>
